<svg width="19" height="24" viewBox="0 0 19 24" xmlns="http://www.w3.org/2000/svg"><title>34988E9E-6EF8-4A5F-B18A-2FDCC5F5E1F9</title><g fill-rule="nonzero" fill="#144759"><path d="M18.244 10.873a1.417 1.417 0 0 0-1.094-.428l-4.942.277 2.72-3.11a1.673 1.673 0 0 0 .348-1.562 1.417 1.417 0 0 0-.632-.9c-.01-.008-6.502-3.794-6.502-3.794a1.413 1.413 0 0 0-1.655.168l-3.171 2.84a1.427 1.427 0 0 0-.115 2.01 1.414 1.414 0 0 0 2.002.114l2.404-2.153 1.987 1.159-3.508 4.011a7.218 7.218 0 0 0-3.79 1.882l1.831 1.839a4.633 4.633 0 0 1 3.133-1.217c2.57 0 4.66 2.099 4.66 4.68 0 1.209-.459 2.313-1.212 3.144l1.832 1.84a7.266 7.266 0 0 0 1.97-4.985c0-1.15-.266-2.236-.739-3.203l1.913-.107-.465 5.732a1.422 1.422 0 0 0 1.414 1.538 1.42 1.42 0 0 0 1.412-1.307l.597-7.359a1.426 1.426 0 0 0-.398-1.109zM15.619 4.776a2.377 2.377 0 0 0 2.373-2.382A2.378 2.378 0 0 0 15.619.012a2.378 2.378 0 0 0-2.373 2.382 2.378 2.378 0 0 0 2.373 2.382zM7.26 21.368c-2.57 0-4.661-2.1-4.661-4.68 0-.972.297-1.876.805-2.625l-1.852-1.86A7.263 7.263 0 0 0 .01 16.689c0 4.02 3.246 7.278 7.25 7.278 1.685 0 3.235-.579 4.467-1.547l-1.852-1.86a4.622 4.622 0 0 1-2.615.809z"/></g></svg>